<svg width="365" height="333" viewBox="0 0 365 333" fill="none" xmlns="http://www.w3.org/2000/svg">
<g id="Logo">
<g id="rv">
<path d="M12.752 141H22.4395V109.75H39.9395C40.6426 109.75 41.3066 109.75 41.9707 109.711L58.8457 141H70.0957L52.0098 107.953C62.2051 104.477 66.9707 96.1562 66.9707 85.5312C66.9707 71.3906 58.5332 61 39.7832 61H12.752V141ZM22.4395 101V69.5937H39.4707C52.4395 69.5937 57.4395 75.9219 57.4395 85.5312C57.4395 95.1406 52.4395 101 39.627 101H22.4395ZM84.5684 61H74.4121L103.787 141H113.787L143.162 61H133.006L109.256 128.344H108.318L84.5684 61Z" fill="white"/>
<path d="M12.752 141H8.75195V145H12.752V141ZM22.4395 141V145H26.4395V141H22.4395ZM22.4395 109.75V105.75H18.4395V109.75H22.4395ZM41.9707 109.711L45.4913 107.812L44.281 105.568L41.7358 105.718L41.9707 109.711ZM58.8457 141L55.3251 142.899L56.4583 145H58.8457V141ZM70.0957 141V145H76.8447L73.6046 139.08L70.0957 141ZM52.0098 107.953L50.7188 104.167L46.2179 105.702L48.5009 109.873L52.0098 107.953ZM12.752 61V57H8.75195V61H12.752ZM22.4395 101H18.4395V105H22.4395V101ZM22.4395 69.5937V65.5937H18.4395V69.5937H22.4395ZM12.752 145H22.4395V137H12.752V145ZM26.4395 141V109.75H18.4395V141H26.4395ZM22.4395 113.75H39.9395V105.75H22.4395V113.75ZM39.9395 113.75C40.6214 113.75 41.4041 113.751 42.2056 113.704L41.7358 105.718C41.2092 105.749 40.6638 105.75 39.9395 105.75V113.75ZM38.4501 111.61L55.3251 142.899L62.3663 139.101L45.4913 107.812L38.4501 111.61ZM58.8457 145H70.0957V137H58.8457V145ZM73.6046 139.08L55.5187 106.033L48.5009 109.873L66.5868 142.92L73.6046 139.08ZM53.3008 111.739C59.1852 109.732 63.688 106.246 66.68 101.583C69.6465 96.96 70.9707 91.4306 70.9707 85.5312H62.9707C62.9707 90.2569 61.9121 94.2001 59.947 97.2626C58.0073 100.285 55.0296 102.697 50.7188 104.167L53.3008 111.739ZM70.9707 85.5312C70.9707 77.6728 68.6118 70.4033 63.2083 65.1064C57.8064 59.8111 49.8852 57 39.7832 57V65C48.4313 65 54.1038 67.3842 57.6081 70.8194C61.1108 74.2529 62.9707 79.2491 62.9707 85.5312H70.9707ZM39.7832 57H12.752V65H39.7832V57ZM8.75195 61V141H16.752V61H8.75195ZM26.4395 101V69.5937H18.4395V101H26.4395ZM22.4395 73.5937H39.4707V65.5937H22.4395V73.5937ZM39.4707 73.5937C45.3621 73.5937 48.678 75.0316 50.5342 76.831C52.3682 78.6088 53.4395 81.3837 53.4395 85.5312H61.4395C61.4395 80.0694 60.0107 74.8755 56.1025 71.0869C52.2165 67.32 46.5481 65.5937 39.4707 65.5937V73.5937ZM53.4395 85.5312C53.4395 89.6752 52.3717 92.2965 50.6061 93.9472C48.7864 95.6485 45.5033 97 39.627 97V105C46.5631 105 52.1862 103.422 56.0697 99.791C60.0072 96.1097 61.4395 90.9967 61.4395 85.5312H53.4395ZM39.627 97H22.4395V105H39.627V97ZM84.5684 61L88.3406 59.6696L87.3991 57H84.5684V61ZM74.4121 61V57H68.6822L70.6572 62.3787L74.4121 61ZM103.787 141L100.032 142.379L100.995 145H103.787V141ZM113.787 141V145H116.579L117.542 142.379L113.787 141ZM143.162 61L146.917 62.3787L148.892 57H143.162V61ZM133.006 61V57H130.175L129.234 59.6696L133.006 61ZM109.256 128.344V132.344H112.087L113.028 129.674L109.256 128.344ZM108.318 128.344L104.546 129.674L105.488 132.344H108.318V128.344ZM84.5684 57H74.4121V65H84.5684V57ZM70.6572 62.3787L100.032 142.379L107.542 139.621L78.167 59.6213L70.6572 62.3787ZM103.787 145H113.787V137H103.787V145ZM117.542 142.379L146.917 62.3787L139.407 59.6213L110.032 139.621L117.542 142.379ZM143.162 57H133.006V65H143.162V57ZM129.234 59.6696L105.484 127.013L113.028 129.674L136.778 62.3304L129.234 59.6696ZM109.256 124.344H108.318V132.344H109.256V124.344ZM112.091 127.013L88.3406 59.6696L80.7961 62.3304L104.546 129.674L112.091 127.013Z" fill="#C2C2C2"/>
</g>
<g id="ac">
<path d="M151.166 315L159.213 292.344H191.557L199.604 315H209.76L180.385 235H170.385L141.01 315H151.166ZM162.26 283.75L175.072 247.656H175.697L188.51 283.75H162.26ZM282.836 260C279.867 243.594 266.742 233.906 250.648 233.906C230.18 233.906 215.336 249.688 215.336 275C215.336 300.312 230.18 316.094 250.648 316.094C266.742 316.094 279.867 306.406 282.836 290H273.148C270.805 301.094 261.273 307.031 250.648 307.031C236.117 307.031 224.711 295.781 224.711 275C224.711 254.219 236.117 242.969 250.648 242.969C261.273 242.969 270.805 248.906 273.148 260H282.836Z" fill="white"/>
<path d="M151.166 315V319H153.99L154.935 316.339L151.166 315ZM159.213 292.344V288.344H156.389L155.444 291.005L159.213 292.344ZM191.557 292.344L195.326 291.005L194.381 288.344H191.557V292.344ZM199.604 315L195.834 316.339L196.779 319H199.604V315ZM209.76 315V319H215.49L213.515 313.621L209.76 315ZM180.385 235L184.14 233.621L183.177 231H180.385V235ZM170.385 235V231H167.592L166.63 233.621L170.385 235ZM141.01 315L137.255 313.621L135.28 319H141.01V315ZM162.26 283.75L158.49 282.412L156.595 287.75H162.26V283.75ZM175.072 247.656V243.656H172.248L171.303 246.318L175.072 247.656ZM175.697 247.656L179.467 246.318L178.522 243.656H175.697V247.656ZM188.51 283.75V287.75H194.174L192.279 282.412L188.51 283.75ZM154.935 316.339L162.982 293.683L155.444 291.005L147.397 313.661L154.935 316.339ZM159.213 296.344H191.557V288.344H159.213V296.344ZM187.787 293.683L195.834 316.339L203.373 313.661L195.326 291.005L187.787 293.683ZM199.604 319H209.76V311H199.604V319ZM213.515 313.621L184.14 233.621L176.63 236.379L206.005 316.379L213.515 313.621ZM180.385 231H170.385V239H180.385V231ZM166.63 233.621L137.255 313.621L144.765 316.379L174.14 236.379L166.63 233.621ZM141.01 319H151.166V311H141.01V319ZM166.029 285.088L178.842 248.994L171.303 246.318L158.49 282.412L166.029 285.088ZM175.072 251.656H175.697V243.656H175.072V251.656ZM171.928 248.994L184.74 285.088L192.279 282.412L179.467 246.318L171.928 248.994ZM188.51 279.75H162.26V287.75H188.51V279.75ZM282.836 260V264H287.625L286.772 259.288L282.836 260ZM282.836 290L286.772 290.712L287.625 286H282.836V290ZM273.148 290V286H269.905L269.235 289.173L273.148 290ZM273.148 260L269.235 260.827L269.905 264H273.148V260ZM286.772 259.288C283.425 240.793 268.482 229.906 250.648 229.906V237.906C265.002 237.906 276.309 246.394 278.9 260.712L286.772 259.288ZM250.648 229.906C239.327 229.906 229.385 234.3 222.316 242.315C215.28 250.294 211.336 261.572 211.336 275H219.336C219.336 263.116 222.814 253.847 228.316 247.607C233.787 241.403 241.501 237.906 250.648 237.906V229.906ZM211.336 275C211.336 288.428 215.28 299.706 222.316 307.685C229.385 315.7 239.327 320.094 250.648 320.094V312.094C241.501 312.094 233.787 308.597 228.316 302.393C222.814 296.153 219.336 286.884 219.336 275H211.336ZM250.648 320.094C268.482 320.094 283.425 309.207 286.772 290.712L278.9 289.288C276.309 303.606 265.002 312.094 250.648 312.094V320.094ZM282.836 286H273.148V294H282.836V286ZM269.235 289.173C267.363 298.034 259.804 303.031 250.648 303.031V311.031C262.743 311.031 274.247 304.153 277.062 290.827L269.235 289.173ZM250.648 303.031C244.473 303.031 239.121 300.671 235.259 296.196C231.361 291.678 228.711 284.676 228.711 275H220.711C220.711 286.105 223.764 295.119 229.202 301.422C234.676 307.766 242.293 311.031 250.648 311.031V303.031ZM228.711 275C228.711 265.324 231.361 258.322 235.259 253.804C239.121 249.329 244.473 246.969 250.648 246.969V238.969C242.293 238.969 234.676 242.234 229.202 248.578C223.764 254.881 220.711 263.895 220.711 275H228.711ZM250.648 246.969C259.804 246.969 267.363 251.966 269.235 260.827L277.062 259.173C274.247 245.847 262.743 238.969 250.648 238.969V246.969ZM273.148 264H282.836V256H273.148V264Z" fill="#C2C2C2"/>
</g>
<g id="road">
<g id="Vector">
<path d="M185 146C149.281 167.306 80.6585 155 47 201C44.134 204.917 8.52544 273.079 2.35251 291.872L52 327.5C57 308.5 74.5 262 98.5 236C122.5 210 160 207.5 192 201C233 197.5 250.42 178.51 271 154.5C273.571 151.5 287.5 140 289.5 128.5L250.5 104.5C249.333 107.333 242 112 185 146Z" fill="black"/>
<path d="M2 293C2.10386 292.647 2.22156 292.27 2.35251 291.872M2.35251 291.872C8.52544 273.079 44.134 204.917 47 201C80.6585 155 149.281 167.306 185 146C242 112 249.333 107.333 250.5 104.5L289.5 128.5C287.5 140 273.571 151.5 271 154.5C250.42 178.51 233 197.5 192 201C160 207.5 122.5 210 98.5 236C74.5 262 57 308.5 52 327.5L2.35251 291.872Z" stroke="#C2C2C2" stroke-width="4" stroke-linecap="round"/>
</g>
<path id="Vector 12" d="M263.5 121C267.167 117.333 274.5 109 274.5 105" stroke="#FAD201" stroke-width="4" stroke-linecap="round"/>
<path id="Vector 7" d="M31 299.5C32.5 285.5 42.5 270.5 47.5 265" stroke="#FAD201" stroke-width="4" stroke-linecap="round"/>
<path id="Vector 8" d="M60 239C62.1667 232.333 65.5 221 84 211" stroke="#FAD201" stroke-width="4" stroke-linecap="round"/>
<path id="Vector 9" d="M104.638 202.467C115.638 192.967 128.018 190.114 140.776 189" stroke="#FAD201" stroke-width="4" stroke-linecap="round"/>
<path id="Vector 10" d="M171 180.491C176.082 178.343 181.735 174.694 190.226 174.694C198.717 174.694 207.059 170.477 209.97 168.416" stroke="#FAD201" stroke-width="4" stroke-linecap="round"/>
<path id="Vector 11" d="M231 156C236.333 151.5 247.3 141.2 248.5 136" stroke="#FAD201" stroke-width="4" stroke-linecap="round"/>
</g>
<g id="wrench">
<path d="M285.457 76.4603C289.618 74.9353 294.917 66.7155 296.213 63.7029C301.68 45.6827 312.938 40.1961 322.197 38.157C331.351 36.1408 343.646 42.2674 344.498 44.9226C338.846 47.1606 328.699 52.8702 321.424 57.0966C314.149 61.323 312.537 65.3752 314.089 73.2886C324.584 89.9701 340.432 73.4591 355.402 67.4044C355.79 73.409 353.368 86.9705 340.57 93.1795C324.572 100.941 320.684 94.8417 309.86 95.2162C301.2 95.5157 285.536 102.26 279.114 106.198C267.709 111.989 244.763 125.194 241.606 126.86C236.596 129.503 232.252 134.997 229.764 139.415C228.794 146.815 229.054 151.309 215.014 160.295C202.177 168.511 186.678 162.631 181.899 158.07C184.764 156.753 192.628 153.05 201.167 148.778C215.768 142.006 213.169 131.773 210.044 127.503C197.609 114.27 185.265 130.582 170.283 136.255C170.113 133.176 171.03 125.053 176.066 117.195C182.36 107.374 198.51 103.316 211.937 107.39C221.688 110.348 228.9 105.976 232.01 104.271C240.278 99.7148 258.786 90.823 258.786 90.823C258.786 90.823 282.875 77.4069 285.457 76.4603Z" fill="white"/>
<path d="M296.213 63.7029C294.917 66.7155 289.618 74.9353 285.457 76.4603C282.875 77.4069 258.786 90.823 258.786 90.823C258.786 90.823 240.278 99.7148 232.01 104.271C228.9 105.976 221.688 110.348 211.937 107.39C198.51 103.316 182.36 107.374 176.066 117.195C171.03 125.053 170.113 133.176 170.283 136.255C185.265 130.582 197.609 114.27 210.044 127.503C213.169 131.773 215.768 142.006 201.167 148.778C192.628 153.05 184.764 156.753 181.899 158.07C186.678 162.631 202.177 168.511 215.014 160.295C229.054 151.309 228.794 146.815 229.764 139.415M296.213 63.7029C301.68 45.6827 312.938 40.1961 322.196 38.157C331.351 36.1408 343.646 42.2674 344.498 44.9226C338.846 47.1606 328.699 52.8702 321.424 57.0966C314.149 61.323 312.537 65.3752 314.089 73.2886C324.584 89.9701 340.432 73.4591 355.402 67.4044C355.79 73.409 353.368 86.9705 340.57 93.1795C324.572 100.941 320.684 94.8417 309.86 95.2162C301.2 95.5157 285.536 102.26 279.114 106.198C267.709 111.989 244.763 125.194 241.606 126.86C236.596 129.503 232.252 134.997 229.764 139.415M296.213 63.7029C295.757 68.5683 295.901 79.023 300.123 81.9185M229.764 139.415C229.57 135.151 228.608 124.229 226.543 122.291" stroke="#C2C2C2" stroke-width="2"/>
</g>
<path id="screwdriver" d="M235.013 36.6039L234.896 44.5422C243.976 60.3529 262.387 92.2224 263.389 93.2145C264.39 94.2065 275.515 89.1183 275.515 89.1183C281.202 91.0347 283.071 93.5054 285.556 97.2068C288.042 100.908 283.552 103.896 284.786 106.357C286.073 108.924 289.379 110.7 293.602 111.374C302.075 125.343 319.878 155.371 323.311 163.728C325.15 168.206 323.847 170.455 312.936 178.234C305.234 183.725 296.338 184.096 293.816 182.837C291.799 181.83 271.924 145.867 262.865 128.632C262.365 127.68 264.138 128.406 264.225 122.544C264.333 115.216 259.218 117.584 253.54 115.057C248.997 113.035 250.528 104.018 251.861 99.7626L259.516 97.4326L231.041 47.5391L221.563 44.3451L212.328 24.6638L218.096 21.0845C220.621 22.099 230.426 31.8535 235.013 36.6039Z" fill="white" stroke="#C2C2C2" stroke-width="2"/>
</g>
</svg>
