<svg width="363" height="303" viewBox="0 0 363 303" fill="none" xmlns="http://www.w3.org/2000/svg">
<g id="Group 2">
<path id="rv" d="M12.752 131H22.4395V99.75H39.9395C40.6426 99.75 41.3066 99.75 41.9707 99.7109L58.8457 131H70.0957L52.0098 97.9531C62.2051 94.4766 66.9707 86.1562 66.9707 75.5312C66.9707 61.3906 58.5332 51 39.7832 51H12.752V131ZM22.4395 91V59.5937H39.4707C52.4395 59.5937 57.4395 65.9219 57.4395 75.5312C57.4395 85.1406 52.4395 91 39.627 91H22.4395ZM84.5684 51H74.4121L103.787 131H113.787L143.162 51H133.006L109.256 118.344H108.318L84.5684 51Z" fill="#9F3232"/>
<path id="ac" d="M151.166 290L159.213 267.344H191.557L199.604 290H209.76L180.385 210H170.385L141.01 290H151.166ZM162.26 258.75L175.072 222.656H175.697L188.51 258.75H162.26ZM282.836 235C279.867 218.594 266.742 208.906 250.648 208.906C230.18 208.906 215.336 224.688 215.336 250C215.336 275.312 230.18 291.094 250.648 291.094C266.742 291.094 279.867 281.406 282.836 265H273.148C270.805 276.094 261.273 282.031 250.648 282.031C236.117 282.031 224.711 270.781 224.711 250C224.711 229.219 236.117 217.969 250.648 217.969C261.273 217.969 270.805 223.906 273.148 235H282.836Z" fill="#9F3232"/>
<g id="road">
<g id="Vector">
<path d="M185 132.348C149.281 151.792 80.6585 140.561 47 182.54C44.134 186.114 8.52544 248.318 2.35251 265.467L52 297.981C57 280.642 74.5 238.207 98.5 214.48C122.5 190.753 160 188.472 192 182.54C233 179.346 250.42 162.016 271 140.105C273.571 137.367 287.5 126.873 289.5 116.378L250.5 94.4763C249.333 97.062 242 101.321 185 132.348Z" fill="black"/>
<path d="M2 266.497C2.10386 266.175 2.22156 265.831 2.35251 265.467M2.35251 265.467C8.52544 248.318 44.134 186.114 47 182.54C80.6585 140.561 149.281 151.792 185 132.348C242 101.321 249.333 97.062 250.5 94.4763L289.5 116.378C287.5 126.873 273.571 137.367 271 140.105C250.42 162.016 233 179.346 192 182.54C160 188.472 122.5 190.753 98.5 214.48C74.5 238.207 57 280.642 52 297.981L2.35251 265.467Z" stroke="#C2C2C2" stroke-width="4" stroke-linecap="round"/>
</g>
<path id="Vector 12" d="M263.5 109.534C267.167 106.188 274.5 98.5829 274.5 94.9326" stroke="#FAD201" stroke-width="4" stroke-linecap="round"/>
<path id="Vector 7" d="M31 272.429C32.5 259.653 42.5 245.964 47.5 240.945" stroke="#FAD201" stroke-width="4" stroke-linecap="round"/>
<path id="Vector 8" d="M60 217.218C62.1667 211.134 65.5 200.791 84 191.666" stroke="#FAD201" stroke-width="4" stroke-linecap="round"/>
<path id="Vector 9" d="M104.638 183.879C115.638 175.21 128.018 172.606 140.776 171.589" stroke="#FAD201" stroke-width="4" stroke-linecap="round"/>
<path id="Vector 10" d="M171 163.824C176.082 161.864 181.735 158.534 190.226 158.534C198.717 158.534 207.059 154.685 209.97 152.804" stroke="#FAD201" stroke-width="4" stroke-linecap="round"/>
<path id="Vector 11" d="M231 141.474C236.333 137.367 247.3 127.968 248.5 123.222" stroke="#FAD201" stroke-width="4" stroke-linecap="round"/>
</g>
<g id="Group 1">
<g id="wrench">
<path d="M285.457 68.8879C289.618 67.4962 294.917 59.995 296.213 57.2458C301.68 40.801 312.938 35.7941 322.196 33.9333C331.351 32.0933 343.646 37.6842 344.498 40.1074C338.846 42.1497 328.699 47.3602 321.424 51.2171C314.149 55.0739 312.537 58.7719 314.089 65.9935C324.584 81.2166 340.432 66.1491 355.402 60.6237C355.79 66.1034 353.368 78.4793 340.57 84.1454C324.572 91.2282 320.684 85.6623 309.86 86.0041C301.2 86.2774 285.536 92.432 279.114 96.026C267.709 101.311 244.763 113.362 241.606 114.882C236.596 117.294 232.252 122.307 229.764 126.338C228.794 133.092 229.054 137.193 215.014 145.393C202.177 152.891 186.678 147.526 181.899 143.363C184.764 142.161 192.628 138.782 201.167 134.883C215.768 128.703 213.169 119.365 210.044 115.468C197.609 103.392 185.265 118.278 170.283 123.455C170.113 120.645 171.03 113.232 176.066 106.062C182.36 97.0986 198.51 93.3962 211.937 97.1136C221.688 99.8131 228.9 95.8235 232.01 94.2671C240.278 90.1094 258.786 81.9949 258.786 81.9949C258.786 81.9949 282.875 69.7518 285.457 68.8879Z" fill="white"/>
<path d="M296.213 57.2458C294.917 59.995 289.618 67.4962 285.457 68.8879C282.875 69.7518 258.786 81.9949 258.786 81.9949C258.786 81.9949 240.278 90.1094 232.01 94.2671C228.9 95.8235 221.688 99.8131 211.937 97.1136C198.51 93.3962 182.36 97.0986 176.066 106.062C171.03 113.232 170.113 120.645 170.283 123.455C185.265 118.278 197.609 103.392 210.044 115.468C213.169 119.365 215.768 128.703 201.167 134.883C192.628 138.782 184.764 142.161 181.899 143.363C186.678 147.526 202.177 152.891 215.014 145.393C229.054 137.193 228.794 133.092 229.764 126.338M296.213 57.2458C301.68 40.801 312.938 35.7941 322.196 33.9333C331.351 32.0933 343.646 37.6842 344.498 40.1074C338.846 42.1497 328.699 47.3602 321.424 51.2171C314.149 55.0739 312.537 58.7719 314.089 65.9935C324.584 81.2166 340.432 66.1491 355.402 60.6237C355.79 66.1034 353.368 78.4793 340.57 84.1454C324.572 91.2282 320.684 85.6623 309.86 86.0041C301.2 86.2774 285.536 92.432 279.114 96.026C267.709 101.311 244.763 113.362 241.606 114.882C236.596 117.294 232.252 122.307 229.764 126.338M296.213 57.2458C295.757 61.6859 295.901 71.2266 300.123 73.8689M229.764 126.338C229.57 122.447 228.608 112.481 226.543 110.712" stroke="#C2C2C2" stroke-width="2"/>
</g>
<path id="screwdriver" d="M235.013 32.5158L234.896 39.7602C243.976 54.1887 262.387 83.272 263.389 84.1774C264.39 85.0827 275.515 80.4393 275.515 80.4393C281.202 82.1881 283.071 84.4428 285.556 87.8206C288.042 91.1984 283.552 93.9248 284.786 96.1709C286.073 98.5138 289.379 100.135 293.602 100.749C302.075 113.497 319.878 140.9 323.311 148.527C325.15 152.612 323.847 154.665 312.936 161.764C305.234 166.775 296.338 167.114 293.816 165.965C291.799 165.046 271.924 132.227 262.865 116.498C262.365 115.63 264.138 116.292 264.225 110.943C264.333 104.256 259.218 106.416 253.54 104.11C248.997 102.265 250.528 94.0367 251.861 90.153L259.516 88.0268L231.041 42.4951L221.563 39.5803L212.328 21.6197L218.096 18.3532C220.621 19.2791 230.426 28.1807 235.013 32.5158Z" fill="white" stroke="#C2C2C2" stroke-width="2"/>
</g>
</g>
</svg>
